<svg xmlns="http://www.w3.org/2000/svg" viewBox="0 0 975.74 975.74"><rect width="100%" height="100%" fill="#FFFFFF"/><g transform="translate(85.52 603.37)" fill="#000000"><path d="M50.26-200.64L40.64-200.64L40.64-227.01L30.20-227.01L30.20-234.64L60.65-234.64L60.65-227.01L50.26-227.01L50.26-200.64M97.57-200.64L87.95-200.64L87.95-234.64L97.57-234.64L97.57-200.64M74.84-200.64L65.22-200.64L65.22-234.64L74.84-234.64L74.84-200.64M88.63-213.90L74.16-213.90L74.16-221.87L88.63-221.87L88.63-213.90M132.64-200.64L105.34-200.64L105.34-234.64L132.01-234.64L132.01-227.21L114.86-227.21L114.86-208.07L132.64-208.07L132.64-200.64M129.97-214.29L114.18-214.29L114.18-221.48L129.97-221.48"/><path d="M69.68 0L18.20 0L18.20-182L101.40-182Q126.36-182 144.43-173.94Q162.50-165.88 172.38-150.67Q182.26-135.46 182.26-114.66Q182.26-94.12 172.38-79.04Q162.50-63.96 144.43-55.77Q126.36-47.58 101.40-47.58L46.80-47.58L69.68-69.94L69.68 0M69.68-165.10L69.68-64.48L46.80-88.14L98.28-88.14Q114.40-88.14 122.33-95.16Q130.26-102.18 130.26-114.66Q130.26-127.40 122.33-134.42Q114.40-141.44 98.28-141.44L46.80-141.44L69.68-165.10M253.50 0L202.02 0L202.02-182L283.40-182Q323.18-182 344.63-163.93Q366.08-145.86 366.08-114.66Q366.08-94.12 356.20-79.17Q346.32-64.22 328.25-56.29Q310.18-48.36 285.22-48.36L230.62-48.36L253.50-69.94L253.50 0M369.72 0L314.60 0L269.36-66.30L324.22-66.30L369.72 0M253.50-165.10L253.50-64.48L230.62-88.14L282.10-88.14Q298.22-88.14 306.15-95.16Q314.08-102.18 314.08-114.66Q314.08-127.40 306.15-134.42Q298.22-141.44 282.10-141.44L230.62-141.44L253.50-165.10M478.40 3.64Q456.56 3.64 438.10-3.38Q419.64-10.40 405.99-23.27Q392.34-36.14 384.80-53.30Q377.26-70.46 377.26-91Q377.26-111.54 384.80-128.70Q392.34-145.86 405.99-158.73Q419.64-171.60 438.10-178.62Q456.56-185.64 478.40-185.64Q500.50-185.64 518.83-178.62Q537.16-171.60 550.68-158.73Q564.20-145.86 571.87-128.70Q579.54-111.54 579.54-91Q579.54-70.46 571.87-53.17Q564.20-35.88 550.68-23.14Q537.16-10.40 518.83-3.38Q500.50 3.64 478.40 3.64M478.40-39Q488.80-39 497.77-42.64Q506.74-46.28 513.37-53.17Q520-60.06 523.77-69.68Q527.54-79.30 527.54-91Q527.54-102.96 523.77-112.45Q520-121.94 513.37-128.83Q506.74-135.72 497.77-139.36Q488.80-143 478.40-143Q468-143 459.03-139.36Q450.06-135.72 443.43-128.83Q436.80-121.94 433.03-112.45Q429.26-102.96 429.26-91Q429.26-79.30 433.03-69.68Q436.80-60.06 443.43-53.17Q450.06-46.28 459.03-42.64Q468-39 478.40-39M684.84 0L598.78 0L598.78-182L684.84-182Q715-182 737.88-170.82Q760.76-159.64 773.63-139.36Q786.50-119.08 786.50-91Q786.50-63.18 773.63-42.77Q760.76-22.36 737.88-11.18Q715 0 684.84 0M650.26-140.92L650.26-41.08L682.76-41.08Q698.36-41.08 709.93-46.93Q721.50-52.78 728-64.09Q734.50-75.40 734.50-91Q734.50-106.86 728-118.04Q721.50-129.22 709.93-135.07Q698.36-140.92 682.76-140.92"/></g></svg>
